Patient4_TMGait_0pt4_01_left_38_GRF.mot
version=1
nRows=52
nColumns=19
inDegrees=no
endheader
time	F1x	F1y	F1z	M1x	M1y	M1z	F2x	F2y	F2z	M2x	M2y	M2z	EC1x	EC1y	EC1z	EC2x	EC2y	EC2z
47.56	-15.9921	5.6173	-6.1853	-1.672	1.6872	6.9903	-23.8375	743.0259	-57.7887	280.2278	73.6299	783.0527	-0.0592	0.0182	-0.0073	-0.0462	0.0165	0.9585
47.573	-10.8054	4.2564	-4.1781	-1.3404	1.0817	5.3013	-21.9967	736.9601	-57.2047	278.8607	71.388	776.7544	-0.0592	0.0182	-0.0073	-0.0462	0.0165	0.9585
47.586	-6.3885	3.1502	-2.4892	-1.0665	0.59668	3.9079	-19.8201	732.834	-56.4347	278.1125	68.8282	771.4897	-0.0592	0.0182	-0.0073	-0.0462	0.0165	0.9585
47.599	-2.9989	2.3501	-1.2015	-0.86453	0.24695	2.8761	-17.4108	731.562	-55.5373	278.2834	66.0989	768.1808	-0.0592	0.0182	-0.0073	-0.0462	0.0165	0.9585
47.612	-0.64813	1.8475	-0.32105	-0.73283	0.029807	2.2167	-14.8865	733.4963	-54.6134	279.5018	63.3693	767.3126	-0.0592	0.0182	-0.0073	-0.0462	0.0165	0.9585
47.625	0.80941	1.5745	0.22646	-0.65579	-0.094137	1.8517	-12.3373	738.4	-53.7558	281.6941	60.7783	768.8236	-0.0592	0.0182	-0.0073	-0.0462	0.0165	0.9585
47.638	1.5743	1.4687	0.51724	-0.61869	-0.15361	1.7074	-9.8478	745.5421	-53.0335	284.6066	58.423	772.168	-0.0592	0.0182	-0.0073	-0.0462	0.0165	0.9585
47.651	1.8438	1.4355	0.63945	-0.59642	-0.18587	1.6809	-7.4661	753.8481	-52.4736	287.8584	56.3387	776.4392	-0.0592	0.0182	-0.0073	-0.0462	0.0165	0.9585
47.664	1.7999	1.3661	0.66055	-0.5584	-0.21129	1.635	-5.2246	762.0987	-52.0778	291.007	54.5243	780.5682	-0.0592	0.0182	-0.0073	-0.0462	0.0165	0.9585
47.677	1.5584	1.1757	0.63908	-0.4763	-0.25472	1.4633	-3.1299	769.1067	-51.8178	293.6184	52.9384	783.468	-0.0592	0.0182	-0.0073	-0.0462	0.0165	0.9585
47.69	1.2365	0.76317	0.61037	-0.31612	-0.31961	1.0239	-1.1782	773.9238	-51.652	295.3422	51.5269	784.267	-0.0592	0.0182	-0.0073	-0.0462	0.0165	0.9585
47.703	0.88713	0.049546	0.5973	-0.048942	-0.41374	0.22744	0.67538	775.9799	-51.524	295.9653	50.2111	782.438	-0.0592	0.0182	-0.0073	-0.0462	0.0165	0.9585
47.716	0.57335	-1.0188	0.60959	0.34393	-0.52741	-0.99364	2.5133	775.1116	-51.3897	295.4251	48.9123	777.821	-0.0592	0.0182	-0.0073	-0.0462	0.0165	0.9585
47.729	0.34311	-2.4465	0.6437	0.86466	-0.63808	-2.6234	4.43	771.5249	-51.2359	293.7909	47.5794	770.6135	-0.0592	0.0182	-0.0073	-0.0462	0.0165	0.9585
47.742	0.25694	-4.1463	0.6784	1.4825	-0.69921	-4.565	6.5254	765.6908	-51.0987	291.2309	46.208	761.2686	-0.0592	0.0182	-0.0073	-0.0462	0.0165	0.9585
47.755	0.3927	-5.8704	0.68327	2.1099	-0.64781	-6.5455	8.8321	758.2988	-51.0474	287.9936	44.8469	750.4768	-0.0592	0.0182	-0.0073	-0.0462	0.0165	0.9585
47.768	0.83382	-7.1742	0.60582	2.5843	-0.39092	-8.0527	11.349	750.1793	-51.154	284.3877	43.5672	739.0843	-0.0592	0.0182	-0.0073	-0.0462	0.0165	0.9585
47.781	1.6985	-7.3509	0.38488	2.6449	0.18182	-8.2843	13.9997	742.2225	-51.4599	280.7524	42.4404	728.028	-0.0592	0.0182	-0.0073	-0.0462	0.0165	0.9585
47.794	3.0762	-5.3621	-0.053016	1.9129	1.185	-6.0583	16.6709	735.2174	-51.9393	277.4011	41.489	718.1442	-0.0592	0.0182	-0.0073	-0.0462	0.0165	0.9585
47.807	5.0522	0.12293	-0.77985	-0.10042	2.724	0.12326	19.2355	729.7154	-52.5144	274.5599	40.6922	710.0373	-0.0592	0.0182	-0.0073	-0.0462	0.0165	0.9585
47.82	7.5985	10.6708	-1.8556	-3.9676	4.8532	12.0435	21.5726	725.8531	-53.0797	272.2919	39.9976	703.9001	-0.0592	0.0182	-0.0073	-0.0462	0.0165	0.9585
47.833	10.5423	27.8695	-3.2952	-10.267	7.5205	31.4975	23.5721	723.1718	-53.5462	270.4305	39.3647	699.3287	-0.0592	0.0182	-0.0073	-0.0462	0.0165	0.9585
47.846	13.45	52.9039	-5.034	-19.4309	10.4907	59.8293	25.1015	720.5985	-53.8312	268.5748	38.7687	695.3303	-0.0592	0.0182	-0.0073	-0.0462	0.0165	0.9585
47.859	15.5347	85.936	-6.8671	-31.5176	13.2424	97.2292	26.0675	716.5589	-53.8421	266.1436	38.1649	690.4037	-0.0592	0.0182	-0.0073	-0.0462	0.0165	0.9585
47.872	15.644	125.2635	-8.3892	-45.8989	14.8985	141.7908	26.3842	709.2797	-53.4593	262.4928	37.4809	682.8521	-0.0592	0.0182	-0.0073	-0.0462	0.0165	0.9585
47.885	13.0097	166.9632	-8.9427	-61.0987	14.4245	189.1725	26.0599	697.1898	-52.5735	257.0676	36.6235	671.1254	-0.0592	0.0182	-0.0073	-0.0462	0.0165	0.9585
47.898	8.0854	205.3303	-7.7625	-74.9848	11.1672	232.9697	25.2293	679.3981	-51.1294	249.5734	35.5036	654.2672	-0.0592	0.0182	-0.0073	-0.0462	0.0165	0.9585
47.911	2.2656	236.0548	-4.8439	-85.9874	5.6726	268.2112	24.1362	655.9656	-49.1948	240.07	34.1021	632.1807	-0.0592	0.0182	-0.0073	-0.0462	0.0165	0.9585
47.924	-3.3918	258.9571	-0.87935	-94.0604	-0.9116	294.583	23.0854	627.7886	-46.972	228.9139	32.4908	605.5582	-0.0592	0.0182	-0.0073	-0.0462	0.0165	0.9585
47.937	-8.2445	276.3814	3.4659	-100.0969	-7.6026	314.6803	22.3568	596.066	-44.699	216.5653	30.7728	575.4171	-0.0592	0.0182	-0.0073	-0.0462	0.0165	0.9585
47.95	-12.0896	291.1977	7.57	-105.1862	-13.6412	331.7337	22.0968	561.8693	-42.4341	203.4399	28.9318	542.7084	-0.0592	0.0182	-0.0073	-0.0462	0.0165	0.9585
47.963	-15.0363	305.7791	11.1488	-110.2162	-18.7404	348.3816	22.3076	525.9971	-40.0858	189.8523	26.8705	508.1863	-0.0592	0.0182	-0.0073	-0.0462	0.0165	0.9585
47.976	-17.2286	321.7312	14.0569	-115.7742	-22.7959	366.3485	22.8849	488.963	-37.4925	176.0057	24.4717	472.3767	-0.0592	0.0182	-0.0073	-0.0462	0.0165	0.9585
47.989	-18.7521	340.1802	16.4775	-122.2495	-26.03	386.8099	23.6055	450.9992	-34.5812	161.9877	21.7408	435.5707	-0.0592	0.0182	-0.0073	-0.0462	0.0165	0.9585
48.002	-19.6418	362.0478	18.7153	-129.9439	-28.7926	410.7108	24.1871	412.1725	-31.3701	147.8084	18.7845	397.8967	-0.0592	0.0182	-0.0073	-0.0462	0.0165	0.9585
48.015	-19.9559	387.8602	21.228	-139.0174	-31.5954	438.5771	24.3631	372.5409	-27.9986	133.4584	15.8172	359.4702	-0.0592	0.0182	-0.0073	-0.0462	0.0165	0.9585
48.028	-19.8245	417.6581	24.3911	-149.4692	-34.8924	470.3841	23.8926	332.3069	-24.6189	118.9766	13.0583	320.5321	-0.0592	0.0182	-0.0073	-0.0462	0.0165	0.9585
48.041	-19.3967	451.2756	28.4524	-161.242	-38.994	505.8846	22.6079	291.9404	-21.3875	104.4988	10.7126	281.5591	-0.0592	0.0182	-0.0073	-0.0462	0.0165	0.9585
48.054	-18.7819	488.4966	33.2907	-174.2853	-43.8091	544.7604	20.4738	252.2302	-18.4001	90.2828	8.8868	243.3129	-0.0592	0.0182	-0.0073	-0.0462	0.0165	0.9585
48.067	-18.0395	528.9142	38.6463	-188.4897	-49.0751	586.5172	17.5842	214.1895	-15.7281	76.6764	7.6175	206.7487	-0.0592	0.0182	-0.0073	-0.0462	0.0165	0.9585
48.08	-17.1685	571.7368	44.1702	-203.6011	-54.422	630.2658	14.1544	178.8666	-13.3852	64.0459	6.8427	172.8363	-0.0592	0.0182	-0.0073	-0.0462	0.0165	0.9585
48.093	-16.1616	615.6299	49.577	-219.1578	-59.5419	674.5867	10.4708	147.1167	-11.377	52.6898	6.4633	142.3671	-0.0592	0.0182	-0.0073	-0.0462	0.0165	0.9585
48.106	-15.0173	658.8049	54.6322	-234.518	-64.1884	717.6252	6.8283	119.4264	-9.6809	42.7789	6.3477	115.7763	-0.0592	0.0182	-0.0073	-0.0462	0.0165	0.9585
48.119	-13.7494	699.2444	59.2167	-248.945	-68.2418	757.3253	3.4443	95.8576	-8.2766	34.3356	6.3903	93.1018	-0.0592	0.0182	-0.0073	-0.0462	0.0165	0.9585
48.132	-12.416	735.0759	63.2121	-261.746	-71.6058	791.8235	0.46691	76.1141	-7.1031	27.2568	6.477	74.0559	-0.0592	0.0182	-0.0073	-0.0462	0.0165	0.9585
48.145	-11.064	764.901	66.544	-272.3971	-74.22	819.7689	-2.027	59.6793	-6.0984	21.3625	6.5211	58.1555	-0.0592	0.0182	-0.0073	-0.0462	0.0165	0.9585
48.158	-9.7203	787.9687	69.1026	-280.6081	-75.9861	840.509	-3.9946	45.9654	-5.1868	16.4474	6.4341	44.8581	-0.0592	0.0182	-0.0073	-0.0462	0.0165	0.9585
48.171	-8.3856	804.1026	70.8402	-286.2972	-76.8592	853.9804	-5.3557	34.4522	-4.3194	12.3267	6.144	33.6844	-0.0592	0.0182	-0.0073	-0.0462	0.0165	0.9585
48.184	-7.0447	813.5986	71.7617	-289.5529	-76.8476	860.5938	-5.9968	24.7643	-3.4585	8.8665	5.5775	24.2849	-0.0592	0.0182	-0.0073	-0.0462	0.0165	0.9585
48.197	-5.6831	817.0445	71.9835	-290.5705	-76.0717	861.0527	-5.8373	16.6941	-2.6141	5.9935	4.722	16.4629	-0.0592	0.0182	-0.0073	-0.0462	0.0165	0.9585
48.21	-4.3052	815.1784	71.657	-289.6064	-74.6999	856.1953	-4.9755	10.255	-1.8243	3.7099	3.6581	10.2263	-0.0592	0.0182	-0.0073	-0.0462	0.0165	0.9585
48.223	-2.9558	808.8303	70.956	-286.9605	-72.932	846.9242	-3.7946	5.5437	-1.1619	2.0439	2.596	5.6665	-0.0592	0.0182	-0.0073	-0.0462	0.0165	0.9585
